<svg width="25" height="26" viewBox="0 0 25 26" fill="none" xmlns="http://www.w3.org/2000/svg">
<path d="M23.2971 17.1258C22.0271 16.1053 20.8622 15.6091 19.7357 15.6091C18.1061 15.6091 16.9327 16.6458 15.8704 17.7078C15.7482 17.83 15.6003 17.887 15.405 17.887C14.5098 17.8871 12.935 16.766 10.7243 14.5551C8.12355 11.9542 7.14024 10.2999 7.80144 9.63844C9.59387 7.84662 10.1534 6.05037 7.40911 2.63736C6.42666 1.4146 5.46545 0.820312 4.47057 0.820312C3.12886 0.820312 2.10892 1.89281 1.20905 2.83914C1.05347 3.00272 0.906513 3.15725 0.762423 3.30134C-0.254648 4.31833 -0.254126 6.53659 0.763902 9.23549C1.88086 12.1967 4.08624 15.4181 6.97388 18.3061C9.20701 20.5391 11.6368 22.3437 14.0007 23.5553C16.0645 24.6132 18.0664 25.18 19.6375 25.18C19.6377 25.18 19.6379 25.18 19.6382 25.18C20.6214 25.18 21.4201 24.9655 21.9475 24.5293C23.019 23.6435 25.0133 22.0026 24.9999 20.0536C24.9926 19.0082 24.4198 18.0286 23.2971 17.1258Z" fill="#F66303"/>
</svg>
