<svg width="17" height="21" viewBox="0 0 17 21" fill="none" xmlns="http://www.w3.org/2000/svg">
<path fill-rule="evenodd" clip-rule="evenodd" d="M7.76154 20.6103L8.50008 19.8749L7.76154 20.6103ZM8.50008 19.8749L9.23758 20.6103C9.1408 20.7075 9.02579 20.7846 8.89914 20.8372C8.77249 20.8898 8.6367 20.9169 8.49956 20.9169C8.36242 20.9169 8.22663 20.8898 8.09998 20.8372C7.97333 20.7846 7.85832 20.7075 7.76154 20.6103L7.75529 20.603L7.73758 20.5853L7.673 20.5197C7.3058 20.1415 6.94464 19.7574 6.58966 19.3676C5.69841 18.391 4.84501 17.3806 4.03133 16.3385C3.10216 15.1405 2.15216 13.7864 1.43029 12.4489C0.72404 11.1374 0.166748 9.71659 0.166748 8.41658C0.166748 3.68846 3.90841 0.083252 8.50008 0.083252C13.0917 0.083252 16.8334 3.68846 16.8334 8.41658C16.8334 9.71659 16.2761 11.1374 15.5699 12.4478C14.848 13.7874 13.899 15.1405 12.9688 16.3385C11.8307 17.7964 10.615 19.1922 9.32716 20.5197L9.26258 20.5853L9.24487 20.603L9.23862 20.6093L8.50008 19.8749ZM8.50008 11.5416C9.32888 11.5416 10.1237 11.2123 10.7098 10.6263C11.2958 10.0402 11.6251 9.24539 11.6251 8.41658C11.6251 7.58778 11.2958 6.79293 10.7098 6.20688C10.1237 5.62083 9.32888 5.29158 8.50008 5.29158C7.67128 5.29158 6.87642 5.62083 6.29037 6.20688C5.70432 6.79293 5.37508 7.58778 5.37508 8.41658C5.37508 9.24539 5.70432 10.0402 6.29037 10.6263C6.87642 11.2123 7.67128 11.5416 8.50008 11.5416Z" fill="#F66303"/>
</svg>
